<svg width="22" height="21" viewBox="0 0 22 21" fill="none" xmlns="http://www.w3.org/2000/svg">
<path d="M2.625 19.7002L3.2497 20.4811L3.24972 20.481L2.625 19.7002ZM1 18.9199H0L5.96046e-08 18.9202L1 18.9199ZM5.45216 17.4383L6.07688 18.2192L5.45216 17.4383ZM16 1V2C18.2091 2 20 3.79086 20 6H21H22C22 2.68629 19.3137 0 16 0V1ZM21 6H20V12H21H22V6H21ZM21 12H20C20 14.2091 18.2091 16 16 16V17V18C19.3137 18 22 15.3137 22 12H21ZM16 17V16H6.7016V17V18H16V17ZM5.45216 17.4383L4.82743 16.6575L2.00028 18.9193L2.625 19.7002L3.24972 20.481L6.07688 18.2192L5.45216 17.4383ZM2.625 19.7002L2.00031 18.9193L2 18.9196L1 18.9199L5.96046e-08 18.9202C0.000494778 20.5977 1.94096 21.5281 3.2497 20.4811L2.625 19.7002ZM1 18.9199H2V6H1H0V18.9199H1ZM1 6H2C2 3.79086 3.79086 2 6 2V1V0C2.68629 0 0 2.68629 0 6H1ZM6 1V2H16V1V0H6V1ZM6.7016 17V16C6.02035 16 5.35939 16.2319 4.82743 16.6575L5.45216 17.4383L6.07688 18.2192C6.2542 18.0773 6.47452 18 6.7016 18V17Z" fill="#A3A3A3"/>
</svg>
