<svg width="25" height="25" viewBox="0 0 25 25" fill="none" xmlns="http://www.w3.org/2000/svg">
<path d="M1 10.9489C1 9.71875 1.56602 8.55703 2.53477 7.79888L10.0348 1.92931C11.4829 0.796005 13.5171 0.796006 14.9652 1.92931L22.4652 7.79888C23.434 8.55703 24 9.71875 24 10.9489V20C24 22.2091 22.2091 24 20 24H17.1316C16.5793 24 16.1316 23.5523 16.1316 23V18.8C16.1316 17.6954 15.2361 16.8 14.1316 16.8H10.8684C9.76385 16.8 8.86842 17.6954 8.86842 18.8V23C8.86842 23.5523 8.42071 24 7.86842 24H5C2.79086 24 1 22.2091 1 20L1 10.9489Z" stroke="#A3A3A3" stroke-width="2"/>
</svg>
