<svg width="1135" height="768" viewBox="0 0 1135 768" fill="none" xmlns="http://www.w3.org/2000/svg">
<path d="M806 543L807 544L808 543H806Z" fill="#A52A2A"/>
<path d="M788 315L786 317H785L784 318H783L782 317H781L780 318H777L776 319V321L774 323H773L772 322H771L770 321H769L768 322H766L765 323L763 321H762V323L760 325H755L754 326H752L750 328V333L751 334V339L750 340V342L749 343V353L750 354V356L751 357V362L752 363V364L753 365V367L754 368V371L756 373V379L758 381V383L759 384V386L761 388V391L763 393V398L764 399V403L765 404V405L766 406V409L767 410H768L769 409L770 410V412L771 413H774L775 414V415H776L778 417H779L780 418H781L782 419H790L791 418H793L794 417H796L797 418L798 417H802L803 416H804L806 414V413L807 412V411L808 410H809L811 408H813L814 407H816L817 406H819L820 405H821L823 403H824L826 401V400L827 399V393L828 392V384L827 383V382L826 381L827 380V377L826 376V374L825 373V372L824 371L825 370V368L823 366V358L822 357V356L821 355V353L818 350V349L817 348V347L813 343V338L811 336V332H810L809 331V326L808 325V324L807 323H806L805 322V321L802 318H796L795 317H794L792 315H788Z" fill="#A52A2A"/>
<path d="M1000 172L999 173H988V174L983 179H982L981 180V181L980 182V183L978 185V186L976 188H975L974 189H973L971 191H970L966 195V196L957 205V206L951 212H950V213L949 214H948V215L945 218V219L943 221V222L940 225H938L929 234V235L922 242H921L918 245V246L908 256V257L888 277V278L884 282H883L882 283V284L879 287V289L878 290H875L874 291V294L873 295V296L872 297H871L870 298V303L864 309H862L860 311H859L857 313V314L856 315V318L855 319V322L853 324V328L854 329V330L855 331V334H856L867 345H868L871 348H872L883 359H885L888 362V364L889 365H890L891 366V367L892 368H893L894 369H895L896 370H897L898 371V372H899L900 373H902L904 375H905L906 376V377L907 378H908L909 379H911L915 383H916L917 384H918L923 389V390L925 392H927L928 393V394L938 404H939L940 405H941L947 411V412L946 413H944V416L943 417V418L940 421H939L938 422H936L935 423H934L930 427V429L929 430V432L928 433V434L927 435V436L923 440H922L919 443H918L916 445V446L915 447V448L908 455H906V459L903 462H901L899 464V465L898 466V467L894 471V472L891 475V477L890 478V479L888 481V482L886 484H884L883 483H882L880 485V487L879 488V492L876 495V497L875 498H873L872 499L873 500V501L869 505V506L868 507V509H870L871 510V511L870 512H868V513L867 514V515L868 516H869L870 515H871L873 517V518L874 519V520L873 521H872V525L873 526H874L878 530H879L881 532V534L882 535H883L884 536V537L885 538H886L888 540V541L889 542H891L892 541L893 542H894L896 544H902L903 543V542L905 540V539L906 538H912V537L915 534H916L917 533V532L918 531H919L922 528H923L947 504H948L949 503V502L950 501H951L952 500V499L956 495H957V494L962 489V488L963 487H964L970 481V480L971 479H972L989 462H990V461L996 455H997L999 453V452L1008 443H1010L1011 442V441L1012 440V439L1013 438H1014L1016 436V435L1021 430V429L1023 427V425L1026 422V421L1028 419V418L1029 417V416L1030 415V414L1032 412V408L1031 407V406L1032 405V398L1031 397V396L1030 395V394L1025 389V388H1024L1018 382H1017L1016 381V380L1012 376V375L1009 372H1008L1007 371V370H1006L1003 367H1001L995 361H994L992 359V358L991 357H990L987 354V353L984 350H982L976 344V343H975L974 342H973L971 340V338L969 336H968L967 335H966L965 334H964L962 332V331L958 327H957L953 323H952L948 319V316L950 314V313L954 309L955 310H956L957 309V308L958 307V306L959 305H960L963 302V301L964 300V298L965 297V296L966 295H967L968 294H969L970 293V292L976 286V285L977 284V283L978 282H979L981 280V278L983 276H984L985 275V274L986 273V272L989 269H990V268L991 267H992V266L994 264H995L997 262V261L999 259H1000V258L1002 256H1003L1004 255H1005V254L1006 253H1007V252L1008 251H1010L1009 250V249L1010 248H1011L1012 247V246L1013 245H1014L1016 243V242L1019 239V238L1022 235V234L1023 233V232L1024 231H1025V230L1029 226V225L1031 223V220L1033 218V217L1034 216V214L1033 213V212L1031 210V208L1032 207V206L1030 204V203L1028 201V200L1027 199V197L1026 196V195L1025 194V193L1020 188H1018L1017 187V186L1016 185V182L1015 181H1012L1009 178V177L1008 176H1006L1005 175V173L1004 172H1000Z" fill="#A52A2A"/>
<path d="M820 170L819 171H817L816 172H814L813 173H812L804 181H803L802 182H801V183L798 186H797L792 191H791L789 193V194L788 195H787L784 198V199L783 200H782V201L781 202H780L778 204H777L769 212H768L766 214V215L764 217H763L762 218H761L754 225H753L752 226V227L748 231H747V232L746 233H745L743 235H742L728 249H727L724 252V253L719 258H718L717 259H716L715 260V262L714 263H713L705 271H704V272L703 273V274L702 275H701L696 280H695V281L690 286V287L689 288H688L687 289H686L683 292V293L682 294H681L678 297H677L667 307H666L662 311V312L661 313H660L658 315V316L654 320H653V321L650 324H649L648 325V326L644 330H643L641 332V333L640 334V335L639 336H638L635 339V340L634 341V342L633 343V344L632 345V346L631 347V349L630 350V351L628 353V354L627 355V358L626 359V360L625 361V362L624 363V366L625 367L624 368V369L623 370V371L625 373V375L624 376L625 377V379L630 384V385L632 387H633L638 392V394L639 395H640L647 402H649L650 403V404H651L654 407V408L655 409V410L656 411H658L660 413V414L662 416V417L665 420H667L669 422V423L675 429H676L678 431V432L680 434H681L683 436V437H684L692 445H693L697 449V450L698 451H699L705 457V458L709 462H710L716 468V469H717L720 472V473L721 474H722L724 476H725L734 485H735L737 487V488L740 491V492L741 493V494H742L743 495H745L749 499H750L752 501V502L754 504H755L757 506V507L759 509H760L762 511V513L763 514V515L765 517H766L770 521V522L771 523H772L773 524V525L774 526H775L776 527V528L781 533H782L784 535V536L785 537H786L787 538H788L789 539H790L791 540H796L797 541H798L799 542H801L802 541H803L804 540H805L806 539H807L808 538H810L811 539H813L815 537V535L818 532H819L820 531H821L823 529V528L824 527H826L829 524H831V523L832 522H833L834 521H835L837 519V515L839 513H840V512L843 509V507L845 505V504L848 501V500L849 499L843 493H842L841 492V491L840 490H839L837 488H836L835 487H834L833 486H832L831 485H829L823 479V477H822L821 476H820L818 474V473L816 471V470H815L813 468V467L811 465H810L809 464V463L807 461H805L804 460L803 461L802 460H801L797 456V455L792 450H791L790 449V447L785 442H784L783 441V440H782L776 434V433H775L766 424H765L764 423V422H763L758 417V416L754 412V411L753 410V409H751L748 406V405L745 402H744L741 399V398H740L738 396V395L735 392V391H734L733 390V389H732L731 388V387H730L729 386V385L728 384H727L726 383V382L721 377H720L719 376V375L718 374H717L710 367V366L708 364V362L710 360H711L712 359V358L716 354H717L718 353V352L719 351V350L722 347V346L723 345H724L725 344H726V343L729 340H730L731 339V338L732 337V336L733 335H734L736 333H737L738 332V331L740 329H741L742 328V327L748 321V319L754 313H755L756 312H757L758 311V310L764 304V303L782 285H783L784 284V283L786 281V280L787 279H788L789 278H790L792 276V275L799 268V267L800 266H801L810 257H811V256L813 254H814V253L817 250V249L820 246H821L822 245H823V244L824 243H825L834 234H835L839 230V229L845 223V219L846 218V215L847 214V213L848 212V211L849 210V202L851 200V199L850 198V197L848 195V191L847 190V189L846 188V187L845 186L843 188H842L841 187V186H840L835 181V179L834 178V177H832L831 178L829 176H827L826 175H825L823 173V172L821 170H820Z" fill="#A52A2A"/>
<path d="M414 165L413 166H411L410 167H407L404 170V173L403 174H401L400 173H397V174L398 175L396 177V179L394 181H393L392 182V183L391 184V203L392 204V206L389 209V214L388 215V227L387 228V245L388 246V247L387 248V250L388 251V253L387 254V255L386 256V281L385 282V297L384 298V309L385 310V312L384 313V320L385 321V323L384 324V349L383 350L384 351V363L383 364V367L384 368V376L383 377V378L384 379V382L383 383V391L384 392V395L383 396V422L384 423V428L383 429V438L384 439V440L383 441V445L384 446V447L383 448V450L382 451V452L384 454V459L385 460V461L384 462H383V464L384 465V468L385 469V473L384 474V475L385 476V480L384 481V487L385 488V489L386 490V492L385 493V494L386 495V509L387 510V513L388 514V517L389 518V522L390 523V527L391 528V535L393 537H394L396 539V540L395 541L396 542H397L398 543H399L400 544H402L403 543H404L406 541H407L408 542H409V541L411 539H413L415 541V544H420L422 542H423L424 541H425L426 540H430L431 539H433L434 540H436L437 539H438V538L437 537L442 532V531L443 530V522L444 521V514L445 513V504L446 503V472L447 471V468L446 467L447 466V463L446 462V459L447 458V455L446 454V430L447 429V412L448 411V410L447 409L448 408V403L447 402V392L448 391L447 390V389L446 388V387L448 385L447 384V381L448 380V377H447L446 376V375L447 374V366L448 365V351L449 350L448 349V336L449 335V328L450 327V324L449 323V314L450 313V305L451 304V301L450 300V288L451 287V283L450 282V280L451 279V274L450 273V272L451 271V260L452 259H453L454 260H455L458 263V264H460L462 266V267H463L464 268H465L466 269H467L469 271V272H470L472 274H473L475 276H477L481 280H482L483 281H484L486 283H487L490 286H493L494 287H495L496 288H497L500 291H501L503 293H504L506 295H507L509 297H510L511 298H512L513 299H514L515 300H517L518 301H519L520 302H521L522 303H523L528 308H532L533 309V310L530 313H529L528 314V315L525 318H524L520 322V323L519 324V325L513 331V332L508 337V338L507 339V340L506 341V342L504 344H503L502 345V346L499 349V350L497 352V354L496 355H495L494 356H493L492 357V358L490 360H489L487 362V363L483 367V368L481 370H480L478 372V373L476 375V378L475 379H474L471 382V383L469 385V388L468 389V390L467 391V396L468 397V400L467 401V405L468 406V409L467 410L468 411V412L469 413V414L470 415H472L476 419L475 420V423H479L485 429H486L488 431H489L490 432H491L496 437H497L499 439H501L502 440V441L504 443H505L514 452V453L516 455H517L519 457V458L520 459H521L524 462H525L530 467V468L531 469H532L533 470H535L536 471V472L539 475V476L540 477H541L542 478V479L544 481H545L546 482V483L548 485H549L554 490V491L562 499V500L563 501H564L565 502H566L570 506V507L571 508H572L575 511V513L576 514H577L584 521V522L588 526V527L590 529H591L593 531H594L596 533V534L605 543H606L607 544V545L612 550H613L616 553V554L617 555H618L619 556V557H620L624 561V562L628 566H629L631 568V569H632L633 570V571H634L638 575V576L640 578H641L654 591V592L655 593H656L657 594H658L660 596V597L664 601H665L666 602V603L669 606H670L671 607V608L674 611H675L676 612V613H677L681 617H682L685 620H692L693 621H702L705 618H707L709 616H710L711 615H712L713 616V610L714 609V603L716 601H717L718 602H720L721 603H722L723 604H726V603L729 600V597L730 596V595L731 594V592L730 591V589L729 588V587L726 584V583L725 582V581L726 580V578L723 575V573L722 572V571L721 570V569L719 567V566L718 565H717L712 560V559L710 557V556H709L707 554V553H706L698 545V544H697L692 539H691L688 536V535L687 534V533H686L683 530V529L680 526H679L671 518V517L670 516H669L668 515V514L667 513V512H666L665 511H664L663 510V509L662 508V507L661 506H656L654 504V501L653 500V498L652 497H651L650 496V495H649L648 494V493L647 492H645L644 491V490L643 489V488H640L639 487V486L636 483V481H635L632 478H631L630 477V475L626 471H621L620 470V467L619 466H616L615 465L617 463L608 454V453L607 452H605L604 451H603L602 450V448L600 446H599L595 442H594L593 441V440L590 437V436L584 430V429L582 427H581L567 413H566L565 412H562L560 410V409L557 406V404L556 403H555L554 402H553L552 401V396L554 394V393L556 391H557L559 389V387L560 386V385L561 384V382L562 381H564L565 380H566L568 378V375H567L566 374V373L568 371H571L574 368H575L576 367V366L575 365V364L576 363H579L582 360V358H581L580 357L583 354H584L586 352V351L588 349H589L590 350H591L592 351L593 350H594L592 348L593 347H595L596 346V345L597 344H599L600 343V342L601 341V340L603 338V337L604 336V335L603 334L604 333H605L606 332H607L608 331H609L610 330L611 331H612L618 325H619V324L620 323V318L619 317V311L618 310V307L619 306V305L620 304V302L616 298H615L613 296H612L610 294V293H608L606 291V290L605 289V288L602 285H601L599 283V281L594 276V274H590L589 273H587L585 271V270L584 269V268L583 267H581L579 265V264H578L574 260H573L572 259H571L569 257H568L567 256H566L562 252H561L560 251H557L556 250V249H554L550 245H547L546 246L545 245V244L544 243V242L541 239H538L537 238V237L533 233H531L530 232H529L527 230V229H525L523 227H522L518 223H516L514 221H513L510 218H509L507 216H506L505 215H504L501 212H500L499 211H498L496 209H495L494 208H493L487 202H486L485 201H484L483 200H482L481 199V198L480 197V196H479L478 195H476L475 194H474L473 193H471L469 191H468L467 190V188L465 186H463L461 188H460L459 187V186H458L457 185H456L455 184V182L454 181H453L452 182L451 181V180H449L448 179H447L445 177V176L444 175H441L440 176H438L437 175L438 174V172H436L433 169H431L430 168H428L427 167H418L417 166H416L415 165H414Z" fill="#A52A2A"/>
<path d="M226 136L225 137H224L222 139H221L220 140H219L218 141H210L209 142H208L207 143V144L205 146H204L203 147L202 146H200L197 149H196L194 151V156L192 158H191L190 159V161L188 163V164L187 165V166L186 167V168L185 169V173L184 174H182L181 175L183 177L181 179H179V182L177 184V187L176 188V190L175 191V192L174 193V197L172 199V201L171 202V203L170 204V206L169 207L170 208L169 209V211L167 213V215L165 217V222L161 226V231L160 232V234L159 235V236L158 237V241L157 242V243L156 244V245L154 247V248L151 251V255L150 256V258L148 260V261L146 263V265L148 267V268L147 269H144V272L143 273H142V277L141 278V279L139 281V284L138 285V288L135 291V292L134 293V295L132 297V298L131 299V302L130 303V304L129 305V307L128 308V310L124 314V318L122 320V322L121 323V324L120 325V326L119 327V328L118 329V331L117 332V333L116 334V336L115 337V338L114 339V343L113 344V345L111 347V354L109 356V357L107 359V361L104 364V368L103 369V371L102 372V373L99 376V378L98 379V380L97 381V382L96 383L97 384V385L95 387V388L94 389V390L93 391V392L92 393V394L91 395V396L90 397V398L89 399V401L87 403V407L86 408V409L85 410V411L84 412V415L82 417V422L81 423V424L80 425V426L79 427V428L78 429V430L77 431V433L75 435V438L74 439V441L73 442V444L72 445V446L70 448V450L69 451V453L68 454V456L66 458V460L65 461V463L64 464V465L63 466V469L62 470V474L63 475V479L64 480V481L66 483V486L64 488V491L65 492H66L67 493L68 492H69L72 495H73L74 496H75L77 498H78L89 509H90L94 513H95L96 514H97L100 517H102L103 518V519H104L106 521H107L109 523H111L112 524H113L115 526H116L118 528H120L123 531H124L126 533H128L130 535H132L133 536H134L136 538H137L138 539H143L144 540H147L148 541H150L151 542H154L155 541H156L157 540H159L161 538H164L165 537V534L166 533H168L170 531V530L173 527V526L175 524V523L179 519H180L181 518H183V516L184 515V514L190 508V505L187 502V501L186 500L187 499V498H186L184 496V495L183 494V491L175 483H174L172 481H171L170 480H169L167 478H166L165 477H164L161 474H160L159 473H158L154 469H152L151 468V466H150L148 464H146L143 461H141L139 459V457L140 456L139 455V454L140 453V452L141 451V450L142 449V444L144 442V439L145 438H146V436L147 435V434L149 432V429L151 427V425L152 424V423L153 422V421L154 420V417L156 415V414L158 412V410L159 409V408L161 406V404L162 403V400L163 399V398L164 397V396L165 395V394L166 393V391L167 390V389L168 388V387L169 386V385L170 384V383L172 381V378L174 376V375L175 374V372L176 371V370L177 369V367L179 365V362L180 361V360L181 359V357L182 356V355L184 353V350L185 349V348L186 347V344L187 343V342L189 340V337L190 336V335L191 334V331L192 330V329L194 327V326L195 325V324L196 323V321L198 319V316L199 315V314L200 313V310L201 309V308L203 306V304L205 302V299L206 298V297L208 295V293L209 292V291L210 290V287L212 285V284L213 283V281L214 280V279L215 278V274L216 273L218 275V278L219 279V280L220 281V284L221 285V286L222 287V289L223 290V291L224 292V295L225 296V297L226 298V300L227 301V302L228 303V305L229 306V307L230 308V309L232 311V315L233 316V317L235 319V322L237 324V327L239 329V330L240 331V333L242 335V339L244 341V342L245 343V346L247 348V352L249 354V357L250 358V361L251 362V363L252 364V366L253 367V368L254 369V373L256 375V378L257 379V380L258 381V383L259 384V387L260 388V389L261 390V394L262 395V397L263 398V402L264 403V406L265 407V411L266 412V414L268 416V419L267 420V423H269L270 424V427L271 428V431L273 433V439L274 440V442L275 443V449L276 450V451L277 452V456L276 457V459L277 460V462L278 463V467L277 468V469L275 471H274L272 473H271V474L269 476H268L266 478H264V479L262 481H261L259 483V484L258 485H256L254 487H253L250 490H249V491L248 492H246L245 493V494L243 496L242 495H241L240 494H239L238 495V497L239 498V499L237 501V503L236 504H235L234 505V507L235 508V518L237 520V521L238 522V523L239 524H241L243 526V532H245L246 531H249L250 532V533L251 534H254L255 535V536L253 538V539H254L257 542H258L259 541V540L260 539H261L264 536H266L267 535H269L271 537V538L269 540V542L268 543V545H274V544L276 542H277L279 544V546H283L285 544H286L287 543H288L290 541H292L293 540H294V539L299 534H300L301 533H302L303 532H304L308 528H309L311 526H312L313 525H314L317 522H319L320 521H322L323 520H324L326 518H327L328 517H329L330 516H332L334 514V513L335 512H337L338 511H339L343 507H351V506L359 498V497L360 496L359 495V492L358 491V484L359 483V481H358L357 480V479L356 478V477L355 476V475L354 474V473L352 471V470L351 469V468L350 467V465L349 464V454L348 453V451L347 450H346L343 447V446L342 445V439L340 437V432L339 431V424L338 423V421L337 420V417L335 415V414L334 413L335 412V406L333 404V403L332 402V397L331 396V395L330 394V389L329 388H328L327 387V384L328 383L325 380V379L324 378V377L325 376V373L324 372V371H322L320 369V363L321 362V360L320 359V358L319 357V355L318 354V351L317 350V349L316 348V346L315 345V342L314 341V339L313 338V336L312 335V333L311 332V331L309 329V328L308 327V325L307 324V321L306 320V319L305 318V317L304 316V312L301 309V305L300 304H298L296 302V300L297 299V298L296 297V296L294 294V293L293 292V291L292 290V287L290 285V283L287 280V279L285 277V271H284L282 269H281L280 268V258L279 257V256L278 255V251L276 249V248L274 246V243L273 242V238L272 237V236L271 235V234L269 232V231H268L267 230H266L265 229V228L264 227V226L265 225V219L264 218V216L263 215V213L262 212V206L260 204V202L261 201V198L260 197V196L257 193V192L255 190V189L257 187V185L258 184V183L260 181V178H259L258 177L257 178H256L255 177V173L256 172L257 173H259V170L255 166V163L254 162H253L252 163H251L250 162V157L248 155V154L243 149H242L241 148H239L235 144V143L233 141V140L231 138H230L228 136H226Z" fill="#A52A2A"/>
</svg>
