<svg width="298" height="410" viewBox="0 0 298 410" fill="none" xmlns="http://www.w3.org/2000/svg">
<path d="M164 0L163 1H162L160 3H159L158 4H157L156 5H148L147 6H146L145 7V8L143 10H142L141 11L140 10H138L135 13H134L132 15V20L130 22H129L128 23V25L126 27V28L125 29V30L124 31V32L123 33V37L122 38H120L119 39L121 41L119 43H117V46L115 48V51L114 52V54L113 55V56L112 57V61L110 63V65L109 66V67L108 68V70L107 71L108 72L107 73V75L105 77V79L103 81V86L99 90V95L98 96V98L97 99V100L96 101V105L95 106V107L94 108V109L92 111V112L89 115V119L88 120V122L86 124V125L84 127V129L86 131V132L85 133H82V136L81 137H80V141L79 142V143L77 145V148L76 149V152L73 155V156L72 157V159L70 161V162L69 163V166L68 167V168L67 169V171L66 172V174L62 178V182L60 184V186L59 187V188L58 189V190L57 191V192L56 193V195L55 196V197L54 198V200L53 201V202L52 203V207L51 208V209L49 211V218L47 220V221L45 223V225L42 228V232L41 233V235L40 236V237L37 240V242L36 243V244L35 245V246L34 247L35 248V249L33 251V252L32 253V254L31 255V256L30 257V258L29 259V260L28 261V262L27 263V265L25 267V271L24 272V273L23 274V275L22 276V279L20 281V286L19 287V288L18 289V290L17 291V292L16 293V294L15 295V297L13 299V302L12 303V305L11 306V308L10 309V310L8 312V314L7 315V317L6 318V320L4 322V324L3 325V327L2 328V329L1 330V333L0 334V338L1 339V343L2 344V345L4 347V350L2 352V355L3 356H4L5 357L6 356H7L10 359H11L12 360H13L15 362H16L27 373H28L32 377H33L34 378H35L38 381H40L41 382V383H42L44 385H45L47 387H49L50 388H51L53 390H54L56 392H58L61 395H62L64 397H66L68 399H70L71 400H72L74 402H75L76 403H81L82 404H85L86 405H88L89 406H92L93 405H94L95 404H97L99 402H102L103 401V398L104 397H106L108 395V394L111 391V390L113 388V387L117 383H118L119 382H121V380L122 379V378L128 372V369L125 366V365L124 364L125 363V362H124L122 360V359L121 358V355L113 347H112L110 345H109L108 344H107L105 342H104L103 341H102L99 338H98L97 337H96L92 333H90L89 332V330H88L86 328H84L81 325H79L77 323V321L78 320L77 319V318L78 317V316L79 315V314L80 313V308L82 306V303L83 302H84V300L85 299V298L87 296V293L89 291V289L90 288V287L91 286V285L92 284V281L94 279V278L96 276V274L97 273V272L99 270V268L100 267V264L101 263V262L102 261V260L103 259V258L104 257V255L105 254V253L106 252V251L107 250V249L108 248V247L110 245V242L112 240V239L113 238V236L114 235V234L115 233V231L117 229V226L118 225V224L119 223V221L120 220V219L122 217V214L123 213V212L124 211V208L125 207V206L127 204V201L128 200V199L129 198V195L130 194V193L132 191V190L133 189V188L134 187V185L136 183V180L137 179V178L138 177V174L139 173V172L141 170V168L143 166V163L144 162V161L146 159V157L147 156V155L148 154V151L150 149V148L151 147V145L152 144V143L153 142V138L154 137L156 139V142L157 143V144L158 145V148L159 149V150L160 151V153L161 154V155L162 156V159L163 160V161L164 162V164L165 165V166L166 167V169L167 170V171L168 172V173L170 175V179L171 180V181L173 183V186L175 188V191L177 193V194L178 195V197L180 199V203L182 205V206L183 207V210L185 212V216L187 218V221L188 222V225L189 226V227L190 228V230L191 231V232L192 233V237L194 239V242L195 243V244L196 245V247L197 248V251L198 252V253L199 254V258L200 259V261L201 262V266L202 267V270L203 271V275L204 276V278L206 280V283L205 284V287H207L208 288V291L209 292V295L211 297V303L212 304V306L213 307V313L214 314V315L215 316V320L214 321V323L215 324V326L216 327V331L215 332V333L213 335H212L210 337H209V338L207 340H206L204 342H202V343L200 345H199L197 347V348L196 349H194L192 351H191L188 354H187V355L186 356H184L183 357V358L181 360L180 359H179L178 358H177L176 359V361L177 362V363L175 365V367L174 368H173L172 369V371L173 372V382L175 384V385L176 386V387L177 388H179L181 390V396H183L184 395H187L188 396V397L189 398H192L193 399V400L191 402V403H192L195 406H196L197 405V404L198 403H199L202 400H204L205 399H207L209 401V402L207 404V406L206 407V409H212V408L214 406H215L217 408V410H221L223 408H224L225 407H226L228 405H230L231 404H232V403L237 398H238L239 397H240L241 396H242L246 392H247L249 390H250L251 389H252L255 386H257L258 385H260L261 384H262L264 382H265L266 381H267L268 380H270L272 378V377L273 376H275L276 375H277L281 371H289V370L297 362V361L298 360L297 359V356L296 355V348L297 347V345H296L295 344V343L294 342V341L293 340V339L292 338V337L290 335V334L289 333V332L288 331V329L287 328V318L286 317V315L285 314H284L281 311V310L280 309V303L278 301V296L277 295V288L276 287V285L275 284V281L273 279V278L272 277L273 276V270L271 268V267L270 266V261L269 260V259L268 258V253L267 252H266L265 251V248L266 247L263 244V243L262 242V241L263 240V237L262 236V235H260L258 233V227L259 226V224L258 223V222L257 221V219L256 218V215L255 214V213L254 212V210L253 209V206L252 205V203L251 202V200L250 199V197L249 196V195L247 193V192L246 191V189L245 188V185L244 184V183L243 182V181L242 180V176L239 173V169L238 168H236L234 166V164L235 163V162L234 161V160L232 158V157L231 156V155L230 154V151L228 149V147L225 144V143L223 141V135H222L220 133H219L218 132V122L217 121V120L216 119V115L214 113V112L212 110V107L211 106V102L210 101V100L209 99V98L207 96V95H206L205 94H204L203 93V92L202 91V90L203 89V83L202 82V80L201 79V77L200 76V70L198 68V66L199 65V62L198 61V60L195 57V56L193 54V53L195 51V49L196 48V47L198 45V42H197L196 41L195 42H194L193 41V37L194 36L195 37H197V34L193 30V27L192 26H191L190 27H189L188 26V21L186 19V18L181 13H180L179 12H177L173 8V7L171 5V4L169 2H168L166 0H164Z" fill="#A52A2A"/>
</svg>
